<svg width="20" height="20" viewBox="0 0 20 20" fill="none" xmlns="http://www.w3.org/2000/svg">
<path fill-rule="evenodd" clip-rule="evenodd" d="M10 0.833008C7.92897 0.833008 6.25004 2.51194 6.25004 4.58301C6.25004 6.65408 7.92897 8.33301 10 8.33301C12.0711 8.33301 13.75 6.65408 13.75 4.58301C13.75 2.51194 12.0711 0.833008 10 0.833008ZM7.91671 4.58301C7.91671 3.43241 8.84945 2.49967 10 2.49967C11.1506 2.49967 12.0834 3.43241 12.0834 4.58301C12.0834 5.7336 11.1506 6.66634 10 6.66634C8.84945 6.66634 7.91671 5.7336 7.91671 4.58301Z" fill="#6839FF"/>
<path d="M2.50004 17.083C2.50004 13.9509 5.38983 11.2497 9.16671 11.2497C9.62694 11.2497 10 10.8766 10 10.4163C10 9.9561 9.62694 9.58301 9.16671 9.58301C4.65933 9.58301 0.833374 12.8513 0.833374 17.083C0.833374 17.5432 1.20647 17.9163 1.66671 17.9163C2.12694 17.9163 2.50004 17.5432 2.50004 17.083Z" fill="#6839FF"/>
<path fill-rule="evenodd" clip-rule="evenodd" d="M10.4167 12.9163C10.4167 12.4561 10.7898 12.083 11.25 12.083H12.0834V11.6663C12.0834 10.5157 13.0161 9.58301 14.1667 9.58301C15.3173 9.58301 16.25 10.5157 16.25 11.6663V12.083H17.0834C17.5436 12.083 17.9167 12.4561 17.9167 12.9163V17.083C17.9167 17.5432 17.5436 17.9163 17.0834 17.9163H11.25C10.7898 17.9163 10.4167 17.5432 10.4167 17.083V12.9163ZM14.5834 12.083V11.6663C14.5834 11.4362 14.3968 11.2497 14.1667 11.2497C13.9366 11.2497 13.75 11.4362 13.75 11.6663V12.083H14.5834ZM16.25 13.7497V16.2497H12.0834V13.7497H16.25Z" fill="#6839FF"/>
</svg>
