<svg width="64" height="64" viewBox="0 0 64 64" fill="none" xmlns="http://www.w3.org/2000/svg">
<path d="M0 32C0 14.3269 14.3269 0 32 0V0C49.6731 0 64 14.3269 64 32V32C64 49.6731 49.6731 64 32 64V64C14.3269 64 0 49.6731 0 32V32Z" fill="#E5E7EB"/>
<g clip-path="url(#clip0_2795_4641)">
<path d="M32 16.9409C23.6966 16.9409 16.9412 23.6963 16.9412 31.9997C16.9412 40.3032 23.6966 47.0586 32 47.0586C40.3034 47.0586 47.0588 40.3032 47.0588 31.9997C47.0588 23.6963 40.3034 16.9409 32 16.9409ZM32 45.1762C24.7345 45.1762 18.8235 39.2652 18.8235 31.9997C18.8235 29.0431 19.8025 26.3111 21.4532 24.11L26.9506 28.8715L26.2191 30.4995C25.8334 30.4006 25.4368 30.3506 25.0387 30.3508C22.4226 30.3508 20.294 32.4794 20.294 35.0955C20.294 37.7116 22.4226 39.8401 25.0387 39.8401C27.655 39.8401 29.7835 37.7116 29.7835 35.0955C29.7835 33.5585 29.0485 32.1908 27.9121 31.323L28.3689 30.3056L32.4043 35.6858C32.492 35.8027 32.6057 35.8975 32.7363 35.9629C32.867 36.0282 33.0111 36.0622 33.1573 36.0622H33.1718L34.3119 36.0447C34.7529 38.2076 36.6699 39.8401 38.9611 39.8401C39.167 39.8401 39.3694 39.8254 39.5684 39.7998L41.3137 41.3114C38.9278 43.698 35.6333 45.1762 32 45.1762ZM24.7098 36.1564C24.9375 36.2585 25.1965 36.2661 25.4298 36.1774C25.6631 36.0887 25.8516 35.911 25.9539 35.6833L27.1051 33.1201C27.597 33.6344 27.9012 34.3295 27.9012 35.0956C27.9012 36.674 26.617 37.958 25.0387 37.958C23.4603 37.958 22.1764 36.674 22.1764 35.0956C22.1764 33.5173 23.4605 32.2332 25.0389 32.2332C25.1708 32.2332 25.2998 32.2452 25.4272 32.2627L24.237 34.9121C24.1863 35.0249 24.1583 35.1465 24.1546 35.27C24.1509 35.3936 24.1716 35.5167 24.2156 35.6322C24.2595 35.7478 24.3257 35.8535 24.4105 35.9435C24.4953 36.0334 24.597 36.1057 24.7098 36.1564ZM30.5741 29.5197L34.2204 29.7093L32.9724 31.5969L30.5741 29.5197ZM34.4073 32.8396L35.7871 30.7529L36.0723 31.3356C35.4754 31.7949 34.9956 32.3889 34.6722 33.0691L34.4073 32.8396ZM36.2692 34.1323C36.4097 33.7391 36.6344 33.3813 36.9276 33.084L37.4319 34.1146L36.2692 34.1323ZM39.7745 34.6192L38.618 32.2557C38.7307 32.2422 38.8448 32.2332 38.9611 32.2332C40.5395 32.2332 41.8234 33.5171 41.8234 35.0955C41.8234 36.2838 41.0951 37.305 40.0617 37.7372L38.042 35.9879L38.9434 35.9741C39.1019 35.9717 39.2573 35.9292 39.395 35.8507C39.5327 35.7722 39.6484 35.6602 39.7313 35.5251C39.8142 35.3899 39.8616 35.2361 39.8692 35.0777C39.8767 34.9193 39.8441 34.7616 39.7745 34.6192ZM42.5468 39.8894L41.5783 39.0507C42.8595 38.2002 43.706 36.7452 43.706 35.0956C43.706 32.4796 41.5774 30.351 38.9613 30.351C38.5468 30.351 38.1447 30.4048 37.7613 30.505L36.9912 28.9315L37.5155 28.1385C37.6532 27.9303 37.7026 27.6759 37.6528 27.4313C37.603 27.1867 37.458 26.9719 37.2499 26.8342C37.0417 26.6965 36.7873 26.6471 36.5427 26.6969C36.2981 26.7467 36.0833 26.8916 35.9456 27.0998L35.4251 27.887L29.5913 27.5839L30.5363 25.4798C30.5617 25.4437 30.6829 25.2888 30.887 25.2888H32.1696C32.4192 25.2888 32.6586 25.1896 32.8351 25.0131C33.0116 24.8366 33.1108 24.5972 33.1108 24.3476C33.1108 24.098 33.0116 23.8586 32.8351 23.6821C32.6586 23.5056 32.4192 23.4064 32.1696 23.4064H30.887C29.7846 23.4064 29.0946 24.1693 28.8606 24.6202L27.7558 27.0789L22.6863 22.6879C25.0722 20.3015 28.3667 18.8233 32 18.8233C39.2655 18.8233 45.1765 24.7342 45.1765 31.9997C45.1765 34.9564 44.1974 37.6884 42.5468 39.8894Z" fill="#6B7280"/>
<path d="M39.7241 24.2207H36.0642C35.8146 24.2207 35.5752 24.3199 35.3987 24.4964C35.2222 24.6729 35.123 24.9123 35.123 25.1619C35.123 25.4115 35.2222 25.6509 35.3987 25.8274C35.5752 26.0039 35.8146 26.1031 36.0642 26.1031H39.7241C39.9737 26.1031 40.2131 26.0039 40.3896 25.8274C40.5661 25.6509 40.6653 25.4115 40.6653 25.1619C40.6653 24.9123 40.5661 24.6729 40.3896 24.4964C40.2131 24.3199 39.9737 24.2207 39.7241 24.2207Z" fill="#6B7280"/>
</g>
<defs>
<clipPath id="clip0_2795_4641">
<rect width="32" height="32" fill="white" transform="translate(16 16)"/>
</clipPath>
</defs>
</svg>
