<svg width="20" height="20" viewBox="0 0 20 20" fill="none" xmlns="http://www.w3.org/2000/svg">
<path fill-rule="evenodd" clip-rule="evenodd" d="M7.75 5.23554C7.4406 5.0569 7.0594 5.0569 6.75 5.23554C6.4406 5.41417 6.25 5.7443 6.25 6.10156V13.8958C6.25 14.253 6.4406 14.5832 6.75 14.7618C7.0594 14.9404 7.4406 14.9404 7.75 14.7618L14.5 10.8647C14.8094 10.6861 15 10.3559 15 9.99866C15 9.6414 14.8094 9.31127 14.5 9.13264L7.75 5.23554ZM12 9.99866L8.25 12.1637V7.83361L12 9.99866Z" fill="white"/>
<path fill-rule="evenodd" clip-rule="evenodd" d="M2.5 0C1.11929 0 0 1.11929 0 2.5V17.5C0 18.8807 1.11929 20 2.5 20H17.5C18.8807 20 20 18.8807 20 17.5V2.5C20 1.11929 18.8807 0 17.5 0H2.5ZM2 2.5C2 2.22386 2.22386 2 2.5 2H17.5C17.7761 2 18 2.22386 18 2.5V17.5C18 17.7761 17.7761 18 17.5 18H2.5C2.22386 18 2 17.7761 2 17.5V2.5Z" fill="white"/>
<path d="M8.25 12.1637L12 9.99866L8.25 7.83361V12.1637Z" fill="white"/>
</svg>
