<svg width="42" height="42" viewBox="0 0 42 42" fill="none" xmlns="http://www.w3.org/2000/svg">
<g clip-path="url(#clip0_1974_8073)">
<mask id="mask0_1974_8073" style="mask-type:luminance" maskUnits="userSpaceOnUse" x="0" y="0" width="42" height="42">
<path d="M0 0H42V42H0V0Z" fill="white"/>
</mask>
<g mask="url(#mask0_1974_8073)">
<mask id="mask1_1974_8073" style="mask-type:alpha" maskUnits="userSpaceOnUse" x="0" y="0" width="42" height="42">
<path d="M41.9959 21.42H0.00430298C0.0366118 23.1227 0.275878 24.8151 0.716833 26.46H41.2834C41.7243 24.8151 41.9636 23.1227 41.9959 21.42ZM41.0387 27.3H0.961483C1.42134 28.7636 2.04108 30.1721 2.80948 31.5H39.1907C39.9591 30.1721 40.5789 28.7636 41.0387 27.3ZM38.6781 32.34H3.32209C4.09907 33.5484 4.99742 34.6742 6.00316 35.7H35.997C37.0028 34.6742 37.9012 33.5484 38.6781 32.34ZM35.1251 36.54H6.87508C8.13207 37.6836 9.52287 38.6707 11.0171 39.48H30.9831C32.4773 38.6707 33.8681 37.6835 35.1251 36.54ZM29.2441 40.32H12.7561C15.2871 41.4015 18.0738 42 21.0001 42C23.9265 42 26.7132 41.4015 29.2441 40.32ZM41.9959 20.58H0.00430298C0.04585 18.3619 0.439464 16.1646 1.17043 14.07H40.8298C41.5608 16.1645 41.9545 18.3619 41.9959 20.58ZM40.5158 13.23C37.4269 5.47827 29.8533 0 21.0001 0C12.1469 0 4.57327 5.47827 1.48438 13.23H40.5158Z" fill="white"/>
</mask>
<g mask="url(#mask1_1974_8073)">
<path d="M41.9999 0H-6.10352e-05V42H41.9999V0Z" fill="white"/>
<path d="M41.9999 0H-6.10352e-05V42H41.9999V0Z" fill="#FAFF02" fill-opacity="0.33"/>
<g filter="url(#filter0_f_1974_8073)">
<path d="M16.5288 44.5811C23.6025 39.8322 25.8898 30.8479 21.6376 24.5141C17.3855 18.1802 8.20405 16.8953 1.13038 21.6442C-5.9433 26.393 -8.23058 35.3773 -3.97842 41.7111C0.273747 48.045 9.45515 49.3299 16.5288 44.5811Z" fill="#FFC700"/>
<path d="M23.1 6.71973H3.77995V20.9997H23.1V6.71973Z" fill="#FFE500"/>
<path d="M27.9299 0H3.56995V20.58H27.9299V0Z" fill="#FF001F"/>
<path d="M36.9599 15.3301H10.4999V48.0901H36.9599V15.3301Z" fill="#18A0FB"/>
<path d="M44.7299 9.23975H17.4299V30.4497H44.7299V9.23975Z" fill="#FF00D6"/>
</g>
</g>
</g>
<mask id="mask2_1974_8073" style="mask-type:alpha" maskUnits="userSpaceOnUse" x="0" y="0" width="42" height="42">
<path d="M41.9959 21.42H0.00430298C0.0366118 23.1227 0.275878 24.8151 0.716833 26.46H41.2834C41.7243 24.8151 41.9636 23.1227 41.9959 21.42ZM41.0387 27.3H0.961483C1.42134 28.7636 2.04108 30.1721 2.80948 31.5H39.1907C39.9591 30.1721 40.5789 28.7636 41.0387 27.3ZM38.6781 32.34H3.32209C4.09907 33.5484 4.99742 34.6742 6.00316 35.7H35.997C37.0028 34.6742 37.9012 33.5484 38.6781 32.34ZM35.1251 36.54H6.87508C8.13207 37.6836 9.52287 38.6707 11.0171 39.48H30.9831C32.4773 38.6707 33.8681 37.6835 35.1251 36.54ZM29.2441 40.32H12.7561C15.2871 41.4015 18.0738 42 21.0001 42C23.9265 42 26.7132 41.4015 29.2441 40.32ZM41.9959 20.58H0.00430298C0.04585 18.3619 0.439464 16.1646 1.17043 14.07H40.8298C41.5608 16.1645 41.9545 18.3619 41.9959 20.58ZM40.5158 13.23C37.4269 5.47827 29.8533 0 21.0001 0C12.1469 0 4.57327 5.47827 1.48438 13.23H40.5158Z" fill="white"/>
</mask>
<g mask="url(#mask2_1974_8073)">
<g style="mix-blend-mode:overlay">
<path d="M42 0H1.52588e-05V42H42V0Z" fill="#808080"/>
</g>
</g>
</g>
<defs>
<filter id="filter0_f_1974_8073" x="-22.9167" y="-16.8" width="84.4466" height="81.6898" filterUnits="userSpaceOnUse" color-interpolation-filters="sRGB">
<feFlood flood-opacity="0" result="BackgroundImageFix"/>
<feBlend mode="normal" in="SourceGraphic" in2="BackgroundImageFix" result="shape"/>
<feGaussianBlur stdDeviation="8.4" result="effect1_foregroundBlur_1974_8073"/>
</filter>
<clipPath id="clip0_1974_8073">
<rect width="42" height="42" fill="white"/>
</clipPath>
</defs>
</svg>
