<svg width="28" height="28" viewBox="0 0 28 28" fill="none" xmlns="http://www.w3.org/2000/svg">
<path fill-rule="evenodd" clip-rule="evenodd" d="M13.9998 5.83333C14.4417 5.83333 14.8457 6.083 15.0433 6.47825L18.6049 13.6014L23.3948 11.2065C23.8086 10.9996 24.3056 11.0568 24.6616 11.3522C25.0176 11.6477 25.1654 12.1256 25.0383 12.5705L21.5383 24.8205C21.3952 25.3214 20.9374 25.6667 20.4165 25.6667H7.58317C7.06228 25.6667 6.60449 25.3214 6.46139 24.8205L2.96139 12.5705C2.83429 12.1256 2.98207 11.6477 3.3381 11.3522C3.69412 11.0568 4.1911 10.9996 4.60492 11.2065L9.39475 13.6014L12.9563 6.47825C13.154 6.083 13.5579 5.83333 13.9998 5.83333ZM13.9998 9.60874L10.96 15.6884C10.6718 16.2647 9.97106 16.4983 9.39475 16.2102L5.93354 14.4796L8.46319 23.3333H19.5365L22.0661 14.4796L18.6049 16.2102C18.0286 16.4983 17.3278 16.2647 17.0397 15.6884L13.9998 9.60874Z" fill="#0C111C"/>
<path fill-rule="evenodd" clip-rule="evenodd" d="M4.08317 9.91666C3.761 9.91666 3.49984 10.1778 3.49984 10.5C3.49984 10.8222 3.761 11.0833 4.08317 11.0833C4.40534 11.0833 4.6665 10.8222 4.6665 10.5C4.6665 10.1778 4.40534 9.91666 4.08317 9.91666ZM1.1665 10.5C1.1665 8.88916 2.47234 7.58333 4.08317 7.58333C5.694 7.58333 6.99984 8.88916 6.99984 10.5C6.99984 12.1108 5.694 13.4167 4.08317 13.4167C2.47234 13.4167 1.1665 12.1108 1.1665 10.5Z" fill="#0C111C"/>
<path fill-rule="evenodd" clip-rule="evenodd" d="M13.9998 4.66666C13.6777 4.66666 13.4165 4.92783 13.4165 5.24999C13.4165 5.57216 13.6777 5.83333 13.9998 5.83333C14.322 5.83333 14.5832 5.57216 14.5832 5.24999C14.5832 4.92783 14.322 4.66666 13.9998 4.66666ZM11.0832 5.24999C11.0832 3.63916 12.389 2.33333 13.9998 2.33333C15.6107 2.33333 16.9165 3.63916 16.9165 5.24999C16.9165 6.86083 15.6107 8.16666 13.9998 8.16666C12.389 8.16666 11.0832 6.86083 11.0832 5.24999Z" fill="#0C111C"/>
<path fill-rule="evenodd" clip-rule="evenodd" d="M23.9165 9.91666C23.5943 9.91666 23.3332 10.1778 23.3332 10.5C23.3332 10.8222 23.5943 11.0833 23.9165 11.0833C24.2387 11.0833 24.4998 10.8222 24.4998 10.5C24.4998 10.1778 24.2387 9.91666 23.9165 9.91666ZM20.9998 10.5C20.9998 8.88916 22.3057 7.58333 23.9165 7.58333C25.5273 7.58333 26.8332 8.88916 26.8332 10.5C26.8332 12.1108 25.5273 13.4167 23.9165 13.4167C22.3057 13.4167 20.9998 12.1108 20.9998 10.5Z" fill="#0C111C"/>
</svg>
