<svg width="48" height="48" viewBox="0 0 48 48" fill="none" xmlns="http://www.w3.org/2000/svg">
<mask id="mask0_1974_8402" style="mask-type:luminance" maskUnits="userSpaceOnUse" x="4" y="4" width="40" height="40">
<path d="M4.96552 4.96533H43.0345V43.0343H4.96552V4.96533Z" fill="white"/>
</mask>
<g mask="url(#mask0_1974_8402)">
<mask id="mask1_1974_8402" style="mask-type:alpha" maskUnits="userSpaceOnUse" x="4" y="4" width="40" height="40">
<path d="M31.689 16.3108C38.3714 17.27 43.0345 19.6752 43.0345 23.9998C43.0345 28.3244 38.3714 30.7296 31.689 31.6888C30.7298 38.3712 28.3246 43.0343 24 43.0343C19.6754 43.0343 17.2702 38.3712 16.311 31.6888C9.62858 30.7296 4.96552 28.3244 4.96552 23.9998C4.96552 19.6752 9.62858 17.27 16.311 16.3108C17.2702 9.6284 19.6754 4.96533 24 4.96533C28.3246 4.96533 30.7298 9.6284 31.689 16.3108Z" fill="white"/>
</mask>
<g mask="url(#mask1_1974_8402)">
<path d="M43.0345 4.96533H4.96553V43.0343H43.0345V4.96533Z" fill="white"/>
<path d="M43.0345 4.96533H4.96553V43.0343H43.0345V4.96533Z" fill="#FF6C02" fill-opacity="0.19"/>
<g filter="url(#filter0_f_1974_8402)">
<path d="M41.8925 29.3296H12.7698V51.7903H41.8925V29.3296Z" fill="#FFC700"/>
<path d="M25.1421 7.43994H8.96281V23.9999H25.1421V7.43994Z" fill="#FFE500"/>
<path d="M23.0483 15.625H0.587601V32.185H23.0483V15.625Z" fill="#00C5DF"/>
</g>
</g>
</g>
<mask id="mask2_1974_8402" style="mask-type:alpha" maskUnits="userSpaceOnUse" x="4" y="4" width="40" height="40">
<path d="M31.689 16.3108C38.3714 17.27 43.0345 19.6752 43.0345 23.9998C43.0345 28.3244 38.3714 30.7296 31.689 31.6888C30.7298 38.3712 28.3246 43.0343 24 43.0343C19.6754 43.0343 17.2702 38.3712 16.311 31.6888C9.62858 30.7296 4.96552 28.3244 4.96552 23.9998C4.96552 19.6752 9.62858 17.27 16.311 16.3108C17.2702 9.6284 19.6754 4.96533 24 4.96533C28.3246 4.96533 30.7298 9.6284 31.689 16.3108Z" fill="white"/>
</mask>
<g mask="url(#mask2_1974_8402)">
<g style="mix-blend-mode:overlay">
<path d="M43.0345 4.96533H4.96552V43.0343H43.0345V4.96533Z" fill="#808080"/>
</g>
</g>
<defs>
<filter id="filter0_f_1974_8402" x="-13.7874" y="-6.93506" width="70.0549" height="73.1001" filterUnits="userSpaceOnUse" color-interpolation-filters="sRGB">
<feFlood flood-opacity="0" result="BackgroundImageFix"/>
<feBlend mode="normal" in="SourceGraphic" in2="BackgroundImageFix" result="shape"/>
<feGaussianBlur stdDeviation="7.1875" result="effect1_foregroundBlur_1974_8402"/>
</filter>
</defs>
</svg>
