<svg width="24" height="24" viewBox="0 0 24 24" fill="none" xmlns="http://www.w3.org/2000/svg">
<path d="M17.5 12.75C17.5 13.1642 17.1642 13.5 16.75 13.5C16.3358 13.5 16 13.1642 16 12.75C16 12.3358 16.3358 12 16.75 12C17.1642 12 17.5 12.3358 17.5 12.75Z" fill="#6839FF"/>
<path fill-rule="evenodd" clip-rule="evenodd" d="M3.65144 3.70405C4.182 3.00017 5.04297 2.5 6.25 2.5H13.5C14.0537 2.5 14.9195 2.67499 15.667 3.29057C16.2692 3.7865 16.7278 4.51353 16.9119 5.5H20.5C21.6046 5.5 22.5 6.39543 22.5 7.5V18.5C22.5 19.6046 21.6046 20.5 20.5 20.5H3.5C2.39543 20.5 1.5 19.6046 1.5 18.5V7.5C1.5 6.56758 2.13806 5.7842 3.00138 5.56266C3.01777 5.04033 3.18361 4.32472 3.65144 3.70405ZM14.3955 4.83443C14.5513 4.96268 14.7265 5.16517 14.848 5.5H5.01156C5.03764 5.31906 5.10984 5.09193 5.24856 4.90788C5.393 4.71625 5.65703 4.5 6.25 4.5H13.5C13.6963 4.5 14.0805 4.57501 14.3955 4.83443ZM3.5 7.5H20.5V9H12.5C11.9477 9 11.5 9.44772 11.5 10V15.5C11.5 16.0523 11.9477 16.5 12.5 16.5H20.5V18.5H3.5V7.5ZM13.5 14.5H20.5V11H13.5V14.5Z" fill="#6839FF"/>
</svg>
