<svg width="44" height="44" viewBox="0 0 44 44" fill="none" xmlns="http://www.w3.org/2000/svg">
<path d="M0 22C0 9.84974 9.84974 0 22 0V0C34.1503 0 44 9.84974 44 22V22C44 34.1503 34.1503 44 22 44V44C9.84974 44 0 34.1503 0 22V22Z" fill="#EBE5FF"/>
<path fill-rule="evenodd" clip-rule="evenodd" d="M22 12.833C19.929 12.833 18.25 14.5119 18.25 16.583C18.25 18.6541 19.929 20.333 22 20.333C24.0711 20.333 25.75 18.6541 25.75 16.583C25.75 14.5119 24.0711 12.833 22 12.833ZM19.9167 16.583C19.9167 15.4324 20.8494 14.4997 22 14.4997C23.1506 14.4997 24.0834 15.4324 24.0834 16.583C24.0834 17.7336 23.1506 18.6663 22 18.6663C20.8494 18.6663 19.9167 17.7336 19.9167 16.583Z" fill="#6839FF"/>
<path d="M14.5 29.083C14.5 25.9509 17.3898 23.2497 21.1667 23.2497C21.6269 23.2497 22 22.8766 22 22.4163C22 21.9561 21.6269 21.583 21.1667 21.583C16.6593 21.583 12.8334 24.8513 12.8334 29.083C12.8334 29.5432 13.2065 29.9163 13.6667 29.9163C14.1269 29.9163 14.5 29.5432 14.5 29.083Z" fill="#6839FF"/>
<path fill-rule="evenodd" clip-rule="evenodd" d="M22.4167 24.9163C22.4167 24.4561 22.7898 24.083 23.25 24.083H24.0834V23.6663C24.0834 22.5157 25.0161 21.583 26.1667 21.583C27.3173 21.583 28.25 22.5157 28.25 23.6663V24.083H29.0834C29.5436 24.083 29.9167 24.4561 29.9167 24.9163V29.083C29.9167 29.5432 29.5436 29.9163 29.0834 29.9163H23.25C22.7898 29.9163 22.4167 29.5432 22.4167 29.083V24.9163ZM26.5834 24.083V23.6663C26.5834 23.4362 26.3968 23.2497 26.1667 23.2497C25.9366 23.2497 25.75 23.4362 25.75 23.6663V24.083H26.5834ZM28.25 25.7497V28.2497H24.0834V25.7497H28.25Z" fill="#6839FF"/>
</svg>
